HIERARCHY
ROOT Hips
{
    OFFSET   0.000000   0.000000   0.000000
    CHANNELS 6 Xposition Yposition Zposition Zrotation Xrotation Yrotation
    JOINT Chest
    {
        OFFSET   0.000000   8.007230   0.000000
        CHANNELS 3 Zrotation Xrotation Yrotation
        JOINT Chest2
        {
            OFFSET   0.000000  22.077100   0.000000
            CHANNELS 3 Zrotation Xrotation Yrotation
            JOINT Neck
            {
                OFFSET   0.000000  23.254800  -0.000021
                CHANNELS 3 Zrotation Xrotation Yrotation
                JOINT Head
                {
                    OFFSET   0.000000  14.370000   1.956610
                    CHANNELS 3 Zrotation Xrotation Yrotation
                    End Site
                    {
                        OFFSET   0.000000  19.566000   0.000000
                    }
                }
            }
            JOINT LeftCollar
            {
                OFFSET   3.911900  19.017000  -0.467063
                CHANNELS 3 Zrotation Xrotation Yrotation
                JOINT LeftShoulder
                {
                    OFFSET  10.383700   0.000000   0.000000
                    CHANNELS 3 Zrotation Xrotation Yrotation
                    JOINT LeftElbow
                    {
                        OFFSET  26.662100   0.001529   0.000325
                        CHANNELS 3 Zrotation Xrotation Yrotation
                        JOINT LeftWrist
                        {
                            OFFSET  28.869000  -0.000011  -0.000096
                            CHANNELS 3 Zrotation Xrotation Yrotation
                            JOINT LeftFinger0
                            {
                                OFFSET   2.044650  -2.323460   3.252850
                                CHANNELS 3 Zrotation Xrotation Yrotation
                                JOINT LeftFinger01
                                {
                                    OFFSET   3.088130   0.000000   0.000000
                                    CHANNELS 3 Zrotation Xrotation Yrotation
                                    JOINT LeftFinger02
                                    {
                                        OFFSET   2.639460   0.000000   0.000000
                                        CHANNELS 3 Zrotation Xrotation Yrotation
                                        End Site
                                        {
                                            OFFSET   2.582190   0.000000   0.000000
                                        }
                                    }
                                }
                            }
                            JOINT LeftFinger1
                            {
                                OFFSET   8.364480   0.000000   3.252850
                                CHANNELS 3 Zrotation Xrotation Yrotation
                                JOINT LeftFinger11
                                {
                                    OFFSET   4.646930   0.000000   0.000000
                                    CHANNELS 3 Zrotation Xrotation Yrotation
                                    JOINT LeftFinger12
                                    {
                                        OFFSET   2.323460   0.000000   0.000000
                                        CHANNELS 3 Zrotation Xrotation Yrotation
                                        End Site
                                        {
                                            OFFSET   2.273050   0.000000   0.000000
                                        }
                                    }
                                }
                            }
                            JOINT LeftFinger2
                            {
                                OFFSET   8.364480   0.000016   1.078090
                                CHANNELS 3 Zrotation Xrotation Yrotation
                                JOINT LeftFinger21
                                {
                                    OFFSET   5.111620   0.000000   0.000000
                                    CHANNELS 3 Zrotation Xrotation Yrotation
                                    JOINT LeftFinger22
                                    {
                                        OFFSET   2.788160   0.000017   0.000000
                                        CHANNELS 3 Zrotation Xrotation Yrotation
                                        End Site
                                        {
                                            OFFSET   2.727660   0.000000   0.000000
                                        }
                                    }
                                }
                            }
                            JOINT LeftFinger3
                            {
                                OFFSET   7.899780   0.000015  -1.078090
                                CHANNELS 3 Zrotation Xrotation Yrotation
                                JOINT LeftFinger31
                                {
                                    OFFSET   4.646920   0.000000   0.000000
                                    CHANNELS 3 Zrotation Xrotation Yrotation
                                    JOINT LeftFinger32
                                    {
                                        OFFSET   2.323470   0.000000   0.000000
                                        CHANNELS 3 Zrotation Xrotation Yrotation
                                        End Site
                                        {
                                            OFFSET   2.273050   0.000000   0.000000
                                        }
                                    }
                                }
                            }
                            JOINT LeftFinger4
                            {
                                OFFSET   7.435090   0.000000  -3.252850
                                CHANNELS 3 Zrotation Xrotation Yrotation
                                JOINT LeftFinger41
                                {
                                    OFFSET   3.717550   0.000000   0.000000
                                    CHANNELS 3 Zrotation Xrotation Yrotation
                                    JOINT LeftFinger42
                                    {
                                        OFFSET   1.858760   0.000000   0.000000
                                        CHANNELS 3 Zrotation Xrotation Yrotation
                                        End Site
                                        {
                                            OFFSET   1.818440   0.000000   0.000000
                                        }
                                    }
                                }
                            }
                        }
                    }
                }
            }
            JOINT RightCollar
            {
                OFFSET  -3.911900  19.017000  -0.467062
                CHANNELS 3 Zrotation Xrotation Yrotation
                JOINT RightShoulder
                {
                    OFFSET -10.383700   0.000015   0.000000
                    CHANNELS 3 Zrotation Xrotation Yrotation
                    JOINT RightElbow
                    {
                        OFFSET -26.662100   0.001341   0.000385
                        CHANNELS 3 Zrotation Xrotation Yrotation
                        JOINT RightWrist
                        {
                            OFFSET -28.869000   0.000025  -0.000080
                            CHANNELS 3 Zrotation Xrotation Yrotation
                            JOINT RightFinger0
                            {
                                OFFSET  -2.044650  -2.323490   3.252850
                                CHANNELS 3 Zrotation Xrotation Yrotation
                                JOINT RightFinger01
                                {
                                    OFFSET  -3.088130   0.000000   0.000000
                                    CHANNELS 3 Zrotation Xrotation Yrotation
                                    JOINT RightFinger02
                                    {
                                        OFFSET  -2.639460   0.000000   0.000000
                                        CHANNELS 3 Zrotation Xrotation Yrotation
                                        End Site
                                        {
                                            OFFSET  -2.582190   0.000000   0.000000
                                        }
                                    }
                                }
                            }
                            JOINT RightFinger1
                            {
                                OFFSET  -8.364480   0.000000   3.252850
                                CHANNELS 3 Zrotation Xrotation Yrotation
                                JOINT RightFinger11
                                {
                                    OFFSET  -4.646930   0.000000   0.000000
                                    CHANNELS 3 Zrotation Xrotation Yrotation
                                    JOINT RightFinger12
                                    {
                                        OFFSET  -2.323470   0.000000   0.000000
                                        CHANNELS 3 Zrotation Xrotation Yrotation
                                        End Site
                                        {
                                            OFFSET  -2.273050   0.000000   0.000000
                                        }
                                    }
                                }
                            }
                            JOINT RightFinger2
                            {
                                OFFSET  -8.364480   0.000000   1.078090
                                CHANNELS 3 Zrotation Xrotation Yrotation
                                JOINT RightFinger21
                                {
                                    OFFSET  -5.111610   0.000000   0.000000
                                    CHANNELS 3 Zrotation Xrotation Yrotation
                                    JOINT RightFinger22
                                    {
                                        OFFSET  -2.788160   0.000000   0.000000
                                        CHANNELS 3 Zrotation Xrotation Yrotation
                                        End Site
                                        {
                                            OFFSET  -2.727660   0.000000   0.000000
                                        }
                                    }
                                }
                            }
                            JOINT RightFinger3
                            {
                                OFFSET  -7.899780   0.000000  -1.078090
                                CHANNELS 3 Zrotation Xrotation Yrotation
                                JOINT RightFinger31
                                {
                                    OFFSET  -4.646920   0.000000   0.000000
                                    CHANNELS 3 Zrotation Xrotation Yrotation
                                    JOINT RightFinger32
                                    {
                                        OFFSET  -2.323470   0.000000   0.000000
                                        CHANNELS 3 Zrotation Xrotation Yrotation
                                        End Site
                                        {
                                            OFFSET  -2.273050   0.000000   0.000000
                                        }
                                    }
                                }
                            }
                            JOINT RightFinger4
                            {
                                OFFSET  -7.435090   0.000000  -3.252850
                                CHANNELS 3 Zrotation Xrotation Yrotation
                                JOINT RightFinger41
                                {
                                    OFFSET  -3.717550   0.000000   0.000000
                                    CHANNELS 3 Zrotation Xrotation Yrotation
                                    JOINT RightFinger42
                                    {
                                        OFFSET  -1.858770   0.000000   0.000000
                                        CHANNELS 3 Zrotation Xrotation Yrotation
                                        End Site
                                        {
                                            OFFSET  -1.818440   0.000000   0.000000
                                        }
                                    }
                                }
                            }
                        }
                    }
                }
            }
        }
    }
    JOINT LeftHip
    {
        OFFSET   9.783010   0.000000   0.000000
        CHANNELS 3 Zrotation Xrotation Yrotation
        JOINT LeftKnee
        {
            OFFSET   0.000070 -41.789100   0.000028
            CHANNELS 3 Zrotation Xrotation Yrotation
            JOINT LeftAnkle
            {
                OFFSET   0.000087 -41.133200  -0.000100
                CHANNELS 3 Zrotation Xrotation Yrotation
                JOINT LeftToe
                {
                    OFFSET   0.000000  -6.358960  14.674500
                    CHANNELS 3 Zrotation Xrotation Yrotation
                    End Site
                    {
                        OFFSET   0.000000   0.000000   3.913200
                    }
                }
            }
        }
    }
    JOINT RightHip
    {
        OFFSET  -9.783020   0.000000   0.000000
        CHANNELS 3 Zrotation Xrotation Yrotation
        JOINT RightKnee
        {
            OFFSET   0.000044 -41.789100  -0.000870
            CHANNELS 3 Zrotation Xrotation Yrotation
            JOINT RightAnkle
            {
                OFFSET  -0.000090 -41.133200  -0.000245
                CHANNELS 3 Zrotation Xrotation Yrotation
                JOINT RightToe
                {
                    OFFSET   0.000000  -6.358960  14.674500
                    CHANNELS 3 Zrotation Xrotation Yrotation
                    End Site
                    {
                        OFFSET   0.000000   0.000000   3.913200
                    }
                }
            }
        }
    }
}
MOTION
Frames: 5
Frame Time:   0.016667
 -0.217090  90.048900  -1.199140  -1.594020  -9.297640  -6.292060   0.616633   5.153590  -0.142335   1.253840  10.305300  -0.342728   3.344240   1.396630  -0.079201   5.503170   2.802560   7.495470  -2.540300  -0.042549   3.269060 -55.591900 -22.920900 -42.867900  11.773100 -17.021600 -71.086400  -2.027810   5.589320  -2.643410  44.536500  38.067800 -79.771100 -11.785100   0.018555   0.003968  -0.892557   0.002883   0.020071 -14.048300   0.782740  -3.123570 -11.511400   0.003887   0.004360  -8.058000   0.005722   0.004963 -26.399300  -0.039145   0.080456 -26.411500   0.002516   0.004509 -17.590100  -0.003469   0.000932 -18.651000  -0.258783   0.768346 -18.652900   0.007949   0.002633 -12.422800  -0.005548   0.004419 -21.256900  -2.529880   6.475050 -32.100300   0.002743   0.001874 -21.378800  -0.005772   0.004497   4.882430  -1.326980   5.091610  47.291200 -24.144800  36.850300 -18.667900 -23.539800  62.744300  -3.413860  23.654600   7.141610 -35.109700  23.779300  67.473700  25.213700   0.007877  -0.003514   7.606840   0.001128  -0.003715  17.142000  -0.280926  -0.902760  14.027100   0.006074  -0.004258   9.818940   0.003314  -0.006588  13.625800  -1.102300  -4.539190  13.669500   0.008314  -0.002687   9.103920   0.005083  -0.006636  16.692400  -2.116040  -7.022310  16.822200   0.004299  -0.004081  11.203600  -0.005670  -0.001543  24.091700  -3.006200  -6.689150  36.401000  -0.004347  -0.007808  24.243100   0.000000  -0.005180   0.080872   9.374890   2.693790   0.377750   2.533590  11.432000  -4.436370  -4.020060   5.786090   0.000000   0.000000   0.000000   3.340590   8.726070  -6.790840  -1.114130   3.983160  -7.346720 -10.727200  -0.394908   4.224040   0.000000   0.000000   0.000000
 -0.227651  90.043900  -1.175680  -1.589100  -9.280270  -6.294920   0.616384   5.153230  -0.142183   1.253320  10.304600  -0.342432   3.321660   1.393430  -0.078879   5.465860   2.796720   7.460710  -2.637120   0.024935   3.267930 -55.773300 -22.821700 -42.593100  11.948500 -16.933000 -71.053200  -2.096040   5.289870  -2.641050  44.434300  37.987500 -79.688100 -11.793300   0.022616   0.004772  -0.896654   0.002865   0.023642 -14.055200   0.784973  -3.132860 -11.517100   0.003853   0.004376  -8.061990   0.005776   0.004963 -26.527300  -0.059221   0.120735 -26.463000   0.002583   0.004551 -17.624400  -0.003476   0.000960 -18.716000  -0.263144   0.779914 -18.718100   0.007961   0.002621 -12.466200  -0.005547   0.004412 -21.346400  -2.551810   6.497470 -32.237200   0.002845   0.001923 -21.470000  -0.005765   0.004451   4.948550  -1.291380   5.069820  47.355800 -24.027500  36.404500 -18.759300 -23.541000  62.595000  -3.574180  23.225600   7.129060 -35.145600  23.845100  67.511100  25.213300   0.007883  -0.003672   7.606640   0.001127  -0.003833  17.237700  -0.283116  -0.908074  14.105400   0.006067  -0.004206   9.873740   0.003295  -0.006579  13.711000  -1.111320  -4.542880  13.755100   0.008288  -0.002712   9.160910   0.005079  -0.006584  16.823300  -2.138910  -7.028080  16.954600   0.004314  -0.004082  11.291800  -0.005664  -0.001547  24.225300  -3.030730  -6.692820  36.603600  -0.004348  -0.007764  24.378000  -0.000131  -0.005181   0.084513   9.374360   2.700820   0.377301   2.534610  11.437500  -4.444410  -4.033710   5.774220   0.000000   0.000000  -0.000000   3.340100   8.728630  -6.781740  -1.108020   3.969590  -7.362320 -10.729600  -0.406816   4.238530   0.000000   0.000000  -0.000000
 -0.238343  90.038700  -1.152550  -1.584050  -9.260670  -6.298960   0.614704   5.150790  -0.141840   1.249890  10.299700  -0.341501   3.298110   1.386650  -0.078537   5.427090   2.783940   7.413920  -2.728780   0.070142   3.267770 -55.989300 -22.701100 -42.314500  12.104500 -16.816600 -71.041500  -2.144730   4.950410  -2.632370  44.359200  37.902400 -79.586500 -11.830600   0.024364   0.005122  -0.915323   0.002846   0.024832 -14.099300   0.794859  -3.157930 -11.553400   0.003823   0.004390  -8.087380   0.005828   0.004965 -26.683000  -0.091694   0.184023 -26.556100   0.002650   0.004592 -17.686400  -0.003484   0.001010 -18.812700  -0.274928   0.810432 -18.815000   0.007970   0.002610 -12.530800  -0.005545   0.004407 -21.460300  -2.582100   6.540200 -32.412300   0.002947   0.001987 -21.586600  -0.005759   0.004406   5.011040  -1.259190   5.052000  47.424900 -23.821400  35.963300 -18.847200 -23.610900  62.444700  -3.753450  22.865800   7.120620 -35.180500  23.920700  67.525800  25.212900   0.007888  -0.003829   7.606430   0.001125  -0.003953  17.310900  -0.284176  -0.913388  14.165300   0.006062  -0.004156   9.915690   0.003276  -0.006572  13.778700  -1.116870  -4.546550  13.823000   0.008261  -0.002730   9.206110   0.005076  -0.006534  16.950300  -2.153050  -7.030210  17.082500   0.004333  -0.004082  11.377000  -0.005658  -0.001555  24.340200  -3.042810  -6.694740  36.777300  -0.004348  -0.007719  24.493700  -0.000270  -0.005185   0.089483   9.373100   2.703400   0.376809   2.534920  11.446900  -4.453460  -4.044120   5.766900   0.000000   0.000000   0.000000   3.339310   8.729220  -6.774880  -1.101510   3.953130  -7.378240 -10.732300  -0.416144   4.255640  -0.000000   0.000000  -0.000000
 -0.251499  90.031900  -1.129150  -1.577280  -9.237890  -6.304400   0.606248   5.144100  -0.141398   1.232810  10.286400  -0.340233   3.278980   1.378490  -0.078363   5.395550   2.768120   7.350680  -2.806250   0.068309   3.302040 -56.218300 -22.537000 -42.006100  12.201300 -16.666100 -71.031400  -2.153230   4.558950  -2.599810  44.414500  37.815200 -79.426900 -11.915800   0.019489   0.004020  -0.957912   0.002830   0.018705 -14.200500   0.814550  -3.212630 -11.636900   0.003799   0.004399  -8.145850   0.005865   0.004969 -26.845400  -0.133313   0.265161 -26.725800   0.002704   0.004643 -17.799400  -0.003483   0.001059 -18.948000  -0.300264   0.874667 -18.950500   0.007972   0.002616 -12.621000  -0.005534   0.004408 -21.589700  -2.619810   6.590790 -32.611300   0.003068   0.002098 -21.719100  -0.005768   0.004353   5.075200  -1.217920   5.052540  47.510600 -23.516400  35.523400 -19.002600 -23.733800  62.252700  -4.017940  22.556900   7.139730 -35.142500  23.981700  67.490300  25.310500   0.007885  -0.003765   7.655250   0.001131  -0.004091  17.375000  -0.265206  -0.851134  14.217500   0.006061  -0.004114   9.952220   0.003258  -0.006566  13.852500  -1.111100  -4.503110  13.896200   0.008235  -0.002730   9.254830   0.005080  -0.006502  17.101400  -2.154880  -6.970380  17.232600   0.004356  -0.004108  11.476900  -0.005658  -0.001570  24.464300  -3.034450  -6.639520  36.960500  -0.004343  -0.007673  24.615700  -0.000411  -0.005197   0.094823   9.365820   2.699820   0.376435   2.535500  11.457700  -4.464430  -4.052110   5.766410   0.000000   0.000000   0.000000   3.339630   8.729510  -6.774420  -1.094470   3.926980  -7.382760 -10.736900  -0.418867   4.269130   0.000000   0.000000   0.000000
 -0.264742  90.025100  -1.108430  -1.569220  -9.210090  -6.311190   0.594409   5.136980  -0.139650   1.208780  10.272200  -0.335102   3.256200   1.368090  -0.077831   5.357970   2.747730   7.274400  -2.881210   0.055495   3.362060 -56.443700 -22.292800 -41.656000  12.305700 -16.513100 -71.003000  -2.091030   4.139730  -2.557450  44.477300  37.765500 -79.323500 -12.018300   0.011676   0.002474  -1.009130   0.002805   0.012579 -14.344600   0.843914  -3.293150 -11.756100   0.003776   0.004406  -8.229250   0.005901   0.004972 -27.001200  -0.167398   0.329768 -26.996500   0.002755   0.004691 -17.979700  -0.003481   0.001122 -19.129500  -0.318175   0.919953 -19.132000   0.007973   0.002623 -12.741900  -0.005519   0.004411 -21.747800  -2.659940   6.637860 -32.853300   0.003189   0.002241 -21.880300  -0.005776   0.004298   5.148010  -1.188050   5.056830  47.614700 -23.168100  35.057000 -19.198900 -23.874100  62.034800  -4.288300  22.251900   7.201070 -35.108300  24.014700  67.458200  25.510500   0.007881  -0.003700   7.755230   0.001136  -0.004233  17.457200  -0.238349  -0.761165  14.284300   0.006060  -0.004075   9.999040   0.003238  -0.006561  13.941700  -1.105360  -4.447040  13.984600   0.008211  -0.002730   9.313710   0.005086  -0.006475  17.257400  -2.156710  -6.910550  17.387500   0.004381  -0.004147  11.580100  -0.005659  -0.001585  24.608700  -3.026120  -6.577840  37.173800  -0.004339  -0.007630  24.757700  -0.000555  -0.005220   0.100053   9.349060   2.696160   0.376103   2.536730  11.464400  -4.476130  -4.058800   5.766380   0.000000   0.000000  -0.000000   3.339900   8.729550  -6.773950  -1.086750   3.894980  -7.386920 -10.741800  -0.419249   4.283740   0.000000   0.000000  -0.000000
